<svg width="100" height="100" viewBox="0 0 100 100" fill="none" xmlns="http://www.w3.org/2000/svg">
<path d="M21.9941 49.993C21.2127 49.1765 20.7716 48.0248 20.7791 46.8208L20.9265 23.2526C20.949 19.653 24.65 17.6945 27.1028 19.9842L56.54 47.464C57.4119 48.2779 57.9159 49.4911 57.9138 50.7706L57.8695 77.7246C57.8633 81.4471 53.9504 83.3828 51.5344 80.8585L21.9941 49.993Z" fill="url(#paint0_linear_46_174)"/>
<path d="M64.0803 49.993C63.2989 49.1765 62.8577 48.0248 62.8653 46.8208L63.0127 23.2526C63.0352 19.653 66.7361 17.6945 69.1889 19.9842L98.6262 47.464C99.498 48.2779 100.002 49.4911 100 50.7706L99.9556 77.7246C99.9495 81.4471 96.0365 83.3828 93.6206 80.8585L64.0803 49.993Z" fill="url(#paint1_linear_46_174)"/>
<path d="M1.25512 70.0726C-0.524215 68.3805 -0.390803 65.2135 1.52254 63.7244L13.1208 54.6978C15.4364 52.8956 18.5726 54.7939 18.5674 57.9945L18.5349 78.0196C18.5294 81.3898 15.0884 83.2275 12.8208 81.0711L1.25512 70.0726Z" fill="url(#paint2_linear_46_174)"/>
<defs>
<linearGradient id="paint0_linear_46_174" x1="48.6301" y1="19" x2="48.6301" y2="82" gradientUnits="userSpaceOnUse">
<stop stop-color="#5A5A5A"/>
<stop offset="1" stop-color="#4E3333"/>
</linearGradient>
<linearGradient id="paint1_linear_46_174" x1="48.6301" y1="19" x2="48.6301" y2="82" gradientUnits="userSpaceOnUse">
<stop stop-color="#5A5A5A"/>
<stop offset="1" stop-color="#4E3333"/>
</linearGradient>
<linearGradient id="paint2_linear_46_174" x1="48.6301" y1="19" x2="48.6301" y2="82" gradientUnits="userSpaceOnUse">
<stop stop-color="#5A5A5A"/>
<stop offset="1" stop-color="#4E3333"/>
</linearGradient>
</defs>
</svg>
