<svg xmlns="http://www.w3.org/2000/svg"><defs/><symbol id="box-archive" viewBox="0 0 40 40">
<path d="M37.5 2.5H2.5C1.11797 2.5 0 3.61797 0 5V10C0 10.6884 0.561562 11.25 1.25 11.25H2.5V33.75C2.5 35.8203 4.17891 37.5 6.25 37.5H33.75C35.8211 37.5 37.5 35.8211 37.5 33.75V11.25H38.75C39.4375 11.25 40 10.6875 40 10V5C40 3.61797 38.8828 2.5 37.5 2.5ZM36.25 33.75C36.25 35.1281 35.1281 36.25 33.75 36.25H6.25C4.87188 36.25 3.75 35.1281 3.75 33.75V11.25H36.25V33.75ZM38.75 10H1.25V5C1.25 4.31094 1.81078 3.75 2.5 3.75H37.5C38.1892 3.75 38.75 4.31094 38.75 5V10ZM13.125 20H26.875C27.2188 20 27.5 19.7188 27.5 19.375C27.5 19.0312 27.2188 18.75 26.875 18.75H13.125C12.7812 18.75 12.5 19.0313 12.5 19.3047C12.5 19.5781 12.7812 20 13.125 20Z"/>
</symbol><symbol id="briefcase" viewBox="0 0 40 40">
<path d="M36.25 7.5H30V3.125C30 1.40156 28.6016 0 26.875 0H13.125C11.3984 0 10 1.40156 10 3.125V7.5H3.75C1.67891 7.5 0 9.17969 0 11.25V33.75C0 35.8203 1.67891 37.5 3.75 37.5H36.25C38.3211 37.5 40 35.8211 40 33.75V11.25C40 9.17969 38.3203 7.5 36.25 7.5ZM11.25 3.125C11.25 2.09219 12.0922 1.25 13.125 1.25H26.875C27.9078 1.25 28.75 2.09219 28.75 3.125V7.5H11.25V3.125ZM38.75 33.75C38.75 35.1281 37.6281 36.25 36.25 36.25H3.75C2.37188 36.25 1.25 35.1281 1.25 33.75V21.25H13.75V25.625C13.75 26.6562 14.5938 27.5 15.625 27.5H24.375C25.4078 27.5 26.25 26.6578 26.25 25.625V21.25H38.75V33.75ZM25 21.25V25.625C25 25.9692 24.7192 26.25 24.375 26.25H15.625C15.2812 26.25 15 25.9688 15 25.625V21.25H25ZM1.25 20V11.25C1.25 9.87188 2.37188 8.75 3.75 8.75H36.25C37.6281 8.75 38.75 9.87188 38.75 11.25V20H1.25Z"/>
</symbol><symbol id="clipboard-question" viewBox="0 0 40 40">
<path d="M21.25 6.25C21.25 6.94063 20.6875 7.5 19.9297 7.5C19.3125 7.5 18.6797 6.94063 18.6797 6.25C18.6797 5.55937 19.3125 5 19.9297 5C20.6875 5 21.25 5.55937 21.25 6.25ZM13.6797 5H13.875C14.4531 2.14687 16.9766 0 19.9297 0C23.0234 0 25.4766 2.14687 26.125 5H26.25C28.3203 5 30 6.67891 30 8.75V10C30 11.3828 28.8828 12.5 27.5 12.5H12.4297C11.1195 12.5 9.92969 11.3828 9.92969 10V8.75C9.92969 6.67891 11.6789 5 13.6797 5ZM19.9297 1.25C17.5859 1.25 15.5625 2.96719 15.1016 5.24844L14.8984 6.25H13.75C12.3695 6.25 11.25 7.36953 11.25 8.75V10C11.25 10.6875 11.8094 11.25 12.5 11.25H27.5C28.1875 11.25 28.75 10.6875 28.75 10V8.75C28.75 7.36953 27.6328 6.25 26.25 6.25H25.1016L24.8984 5.24844C24.4375 2.96719 22.4141 1.25 20 1.25H19.9297ZM7.97734 8.89844C6.91875 9.42969 6.17969 10.5078 6.17969 11.6953V35.625C6.17969 37.3516 7.64922 38.75 9.30469 38.75H30.625C32.3516 38.75 33.75 37.3516 33.75 35.625V11.6953C33.75 10.5078 33.0781 9.42969 32.0234 8.89844L31.5937 8.6875C31.2891 8.53125 31.1641 8.15625 31.3125 7.84375C31.4687 7.53672 31.8438 7.41172 32.1563 7.56562L32.5781 7.77969C34.0625 8.52344 35 10.0391 35 11.6953V35.625C35 38.0391 33.0391 40 30.625 40H9.375C6.95859 40 5 38.0391 5 35.625V11.6953C5 10.0391 5.93594 8.52344 7.41875 7.77969L7.84531 7.56562C8.15391 7.41172 8.52969 7.53672 8.68437 7.84375C8.83828 8.15625 8.71328 8.53125 8.40469 8.6875L7.97734 8.89844ZM13.0547 20.625C13.0547 18.2109 15.0859 16.25 17.4297 16.25H21.8906C24.6406 16.25 26.8047 18.4844 26.8047 21.2344C26.8047 22.9062 26.0313 24.4687 24.6328 25.3906L20.5547 28.0391V30C20.5547 30.3438 20.3438 30.625 19.9297 30.625C19.6563 30.625 19.3047 30.3438 19.3047 30V27.6953C19.3047 27.4922 19.4766 27.2891 19.6563 27.1797L23.9453 24.3516C24.9922 23.6563 25.5547 22.4844 25.5547 21.2344C25.5547 19.1719 23.9531 17.5 21.8906 17.5H17.4297C15.7734 17.5 14.3047 18.8984 14.3047 20.625V21.1328C14.3047 21.4141 14.0937 21.7578 13.6797 21.7578C13.4062 21.7578 13.0547 21.4141 13.0547 21.1328V20.625ZM21.1797 33.75C21.1797 34.4375 20.6875 35 19.9297 35C19.3125 35 18.6797 34.4375 18.6797 33.75C18.6797 33.0625 19.3125 32.5 19.9297 32.5C20.6875 32.5 21.1797 33.0625 21.1797 33.75Z"/>
</symbol><symbol id="clipboard-user" viewBox="0 0 40 40">
<path d="M12.5 12.5H27.5C28.8805 12.5 30 11.3805 30 10V8.875C30 6.73516 28.2656 5 26.125 5C25.4766 2.14687 23.0234 0 20 0C16.9766 0 14.4531 2.14687 13.875 5C11.7352 5 10 6.73516 10 8.875V10C10 11.3828 11.1195 12.5 12.5 12.5ZM11.25 8.875C11.25 7.42578 12.4258 6.25 13.875 6.25H14.8969L15.0411 5.53953C15.4306 3.62078 16.7809 1.9325 18.6723 1.42625C21.5575 0.654375 24.3411 2.50672 24.8981 5.24891L25.1016 6.25H26.1234C27.5078 6.25 28.75 7.42578 28.75 8.875V10C28.75 10.6904 28.1904 11.25 27.5 11.25H12.5C11.8094 11.25 11.25 10.6875 11.25 10V8.875ZM32.75 7.8125C32.4302 7.6782 32.0664 7.81738 31.9273 8.13719C31.7906 8.45211 31.9347 8.82078 32.252 8.95984C33.1641 9.35937 33.75 10.2578 33.75 11.25V36.25C33.75 37.6297 32.6297 38.75 31.25 38.75H8.75C7.37031 38.75 6.25 37.6297 6.25 36.25V11.25C6.25 10.2586 6.83836 9.36016 7.75156 8.96016C8.06648 8.82344 8.21055 8.45477 8.07141 8.1375C7.93437 7.82031 7.57344 7.67344 7.24844 7.82031C5.88359 8.41406 5 9.69531 5 11.25V36.25C5 38.3203 6.68203 40 8.75 40H31.25C33.318 40 35 38.318 35 36.25V11.25C35 9.75781 34.1172 8.40625 32.75 7.8125ZM20 7.5C20.6903 7.5 21.25 6.94031 21.25 6.25C21.25 5.55937 20.6875 5 20 5C19.3125 5 18.75 5.55937 18.75 6.25C18.75 6.94063 19.3125 7.5 20 7.5ZM20 25C22.7617 25 25 22.7617 25 20C25 17.2383 22.7617 15 20 15C17.2383 15 15 17.2422 15 20C15 22.7578 17.2422 25 20 25ZM20 16.25C22.068 16.25 23.75 17.932 23.75 20C23.75 22.068 22.0703 23.75 20 23.75C17.9297 23.75 16.25 22.0703 16.25 20C16.25 17.9297 17.9297 16.25 20 16.25ZM11.25 32.5C11.25 33.8805 12.3695 35 13.75 35H26.25C27.6305 35 28.75 33.8805 28.75 32.5C28.75 29.7383 26.5117 27.5 23.75 27.5H16.25C13.4922 27.5 11.25 29.7422 11.25 32.5ZM16.25 28.75H23.75C25.818 28.75 27.5 30.432 27.5 32.5C27.5 33.1892 26.9394 33.75 26.25 33.75H13.75C13.0625 33.75 12.5 33.1875 12.5 32.5C12.5 30.4297 14.1797 28.75 16.25 28.75Z"/>
</symbol><symbol id="desktop-arrow-down" viewBox="0 0 40 40">
<path d="M12.9375 11.0486C12.7205 11.2656 12.7205 11.6172 12.9375 11.834L19.5417 18.4382C19.7083 18.6042 19.8472 18.6667 20 18.6667C20.1528 18.6667 20.2926 18.6043 20.3931 18.5036L26.9972 11.8994C27.2142 11.6824 27.2142 11.3308 26.9972 11.114C26.7802 10.8972 26.4286 10.897 26.2118 11.114L20.5556 16.7708V2.55556C20.5556 2.24847 20.3056 2 20 2C19.6944 2 19.4444 2.24847 19.4444 2.55556V16.7708L13.7292 11.0486C13.5069 10.8333 13.1597 10.8333 12.9375 11.0486ZM36.6667 2H25C24.6944 2 24.4444 2.24875 24.4444 2.55556C24.4444 2.86236 24.6932 3.11111 25 3.11111H36.6667C37.8938 3.11111 38.8889 4.10625 38.8889 5.33333V27.5556C38.8889 28.7826 37.8938 29.7778 36.6667 29.7778H3.33333C2.10625 29.7778 1.11111 28.7826 1.11111 27.5556V5.33333C1.11111 4.10625 2.10625 3.11111 3.33333 3.11111H15C15.3056 3.11111 15.5556 2.8625 15.5556 2.55556C15.5556 2.24861 15.3056 2 15 2H3.33333C1.49236 2 0 3.49236 0 5.33333V27.5556C0 29.3958 1.49236 30.8889 3.33333 30.8889H15.8958L14.0438 36.4444H9.44444C9.13889 36.4444 8.88889 36.6944 8.88889 37C8.88889 37.3056 9.13889 37.5556 9.44444 37.5556H30.5556C30.8615 37.5556 31.1111 37.3071 31.1111 37C31.1111 36.6929 30.8615 36.4444 30.5556 36.4444H25.9576L24.1056 30.8889H36.6667C38.5076 30.8889 40 29.3965 40 27.5556V5.33333C40 3.49236 38.5069 2 36.6667 2ZM24.7847 36.4444H15.2153L17.0674 30.8889H22.9326L24.7847 36.4444ZM15 7.55556C15.3056 7.55556 15.5556 7.30694 15.5556 7C15.5556 6.69306 15.3056 6.44444 15 6.44444H4.44444V22H35.5556V6.44444H25C24.6944 6.44444 24.4444 6.69306 24.4444 7C24.4444 7.30694 24.6932 7.55556 25 7.55556H34.4444V20.8889H5.55556V7.55556H15Z"/>
</symbol><symbol id="envelope" viewBox="0 0 40 40">
<path d="M0 10C0 7.23828 2.23828 5 5 5H35C37.7578 5 40 7.23828 40 10V30C40 32.7578 37.7578 35 35 35H5C2.23828 35 0 32.7578 0 30V10ZM1.25 10V12.2031L17.25 25.1094C18.8594 26.3984 21.1406 26.3984 22.75 25.1094L38.75 12.2031V10C38.75 7.92969 37.0703 6.25 35 6.25H4.92969C2.92891 6.25 1.17969 7.92969 1.17969 10H1.25ZM1.25 13.8047V30C1.25 32.0703 2.92891 33.75 5 33.75H35C37.0703 33.75 38.75 32.0703 38.75 30V13.8047L23.5313 26.0781C21.4688 27.7422 18.5313 27.7422 16.4688 26.0781L1.25 13.8047Z"/>
</symbol><symbol id="head-side-brain" viewBox="0 0 40 40">
<path d="M12.5 13.75C12.5 13.8281 12.4902 13.9014 12.4902 13.9795C12.4902 13.9795 12.4805 13.9698 12.4902 13.9795L12.5 13.75ZM26.25 16.875C28.6625 16.875 30.625 14.9125 30.625 12.5C30.625 10.1516 28.7648 8.22969 26.4406 8.12969C25.9719 7.10703 25.1164 6.30625 24.0367 5.89844C22.9992 5.51023 21.8687 5.53711 20.8594 5.95459C20.0391 4.95625 18.8203 4.375 17.5 4.375C16.1797 4.375 14.9648 4.95609 14.1391 5.95469C13.6172 5.7375 13.0625 5.625 12.5 5.625C10.2867 5.625 8.45078 7.27812 8.16406 9.41406C6.29062 9.66406 4.76562 11.1016 4.43281 13.0156C4.10391 14.9688 5.11953 16.8672 6.87891 17.6875C6.97891 20.0156 8.89844 21.875 11.25 21.875C11.4612 21.875 11.6699 21.8579 11.875 21.8262V24.375C11.875 24.7192 12.1545 25 12.4999 25C12.8454 25 13.1251 24.7192 13.1251 24.375V21.0156C13.1251 20.8081 13.0225 20.6152 12.8529 20.5005C12.6797 20.3828 12.4687 20.3594 12.2734 20.4375C11.9453 20.5625 11.6016 20.625 11.25 20.625C9.52656 20.625 8.125 19.2234 8.12891 17.4703C8.13257 17.4435 8.14477 17.3019 8.14477 17.275C8.14477 17.0089 7.97509 16.772 7.7236 16.6842C6.27812 16.1875 5.4125 14.7266 5.66406 13.2266C5.92656 11.6484 7.22422 10.625 8.75 10.625C9.09547 10.625 9.375 10.3442 9.375 10C9.375 8.27656 10.7766 6.875 12.5 6.875C13.0286 6.875 13.5547 7.01906 14.0219 7.29C14.3112 7.45359 14.6848 7.36568 14.8641 7.0825C15.4375 6.16953 16.4219 5.625 17.5 5.625C18.5781 5.625 19.5609 6.16945 20.1359 7.08281C20.3141 7.36602 20.6889 7.45633 20.9781 7.28789C21.7766 6.82156 22.732 6.74586 23.5977 7.07062C24.4672 7.39781 25.132 8.08156 25.4242 8.95031C25.5078 9.20313 25.75 9.375 26.0156 9.375H26.25C27.9734 9.375 29.375 10.7766 29.375 12.5C29.375 14.2234 27.9734 15.625 26.25 15.625H22.2656C22.0593 15.625 21.8664 15.7275 21.7492 15.8984C21.6333 16.0669 21.6088 16.2842 21.6833 16.477C21.8125 16.8047 21.875 17.1484 21.875 17.5C21.875 19.2234 20.4734 20.625 18.75 20.625C18.3972 20.625 18.053 20.5615 17.7273 20.4345C17.5357 20.3564 17.3159 20.3808 17.1475 20.5005C16.9766 20.6172 16.875 20.8047 16.875 21.0156V24.375C16.875 24.7192 17.1544 25 17.4998 25C17.8453 25 18.1251 24.7192 18.1251 24.375V21.8281C18.3281 21.8594 18.5391 21.875 18.75 21.875C21.1625 21.875 23.125 19.9125 23.125 17.5C23.125 17.29 23.1091 17.0801 23.0774 16.875H26.25ZM39.7266 21.1797C39.1296 19.8422 38.4633 17.9766 37.7562 16.0039C36.5047 12.5102 35.2125 8.89687 33.9461 7.09766C30.7891 2.67812 25.625 0 20.1484 0H15.6328C7.00547 0 0 7.01641 0 15.6406C0 19.9719 1.81875 24.125 5 27.0937V39.375C5 39.7192 5.27953 40 5.625 40C5.97047 40 6.25 39.7192 6.25 39.375V26.5391L6.04297 26.3516C2.99687 23.6125 1.25 19.7109 1.25 15.6406C1.25 7.70547 7.70625 1.25 15.6406 1.25H20.1437C25.218 1.25 29.9953 3.73047 32.925 7.88594C34.0922 9.54609 35.4141 13.2375 36.5797 16.4953C37.2938 18.4898 37.9687 20.3773 38.5844 21.7563C38.8468 22.347 38.7944 22.9992 38.4403 23.5437C38.0875 24.0858 37.5137 24.3984 36.8677 24.3984H33.752V29.3984C33.752 31.8133 31.7864 33.7781 29.3723 33.7781H23.7473V39.375C23.7473 39.7192 24.0269 40 24.3723 40C24.7178 40 24.9973 39.7192 24.9973 39.375V35.0266H29.3723C32.477 35.0266 35.002 32.5023 35.002 29.3969V25.6469H36.8677C37.9286 25.6469 38.9091 25.1147 39.4887 24.2234C40.0703 23.3281 40.1641 22.2188 39.7266 21.1797Z"/>
</symbol><symbol id="laptop-arrow-down" viewBox="0 0 40 40">
<path d="M13.6438 16.1438C13.4484 16.3391 13.4484 16.6555 13.6438 16.8506L19.5875 22.7944C19.7375 22.9437 19.8625 23 20 23C20.1375 23 20.2633 22.9439 20.3538 22.8533L26.2975 16.9095C26.4928 16.7142 26.4928 16.3978 26.2975 16.2026C26.1022 16.0075 25.7858 16.0073 25.5906 16.2026L20.5 21.2938V6.5C20.5 6.22363 20.2766 6 20.0002 6C19.7238 6 19.5 6.22375 19.5 6.5V21.2938L14.3562 16.1438C14.1562 15.95 13.8438 15.95 13.6438 16.1438ZM24.5 7H33C34.1044 7 35 7.89562 35 9V25.5C35 25.7761 35.2239 26 35.5 26C35.7761 26 36 25.775 36 25.5V9C36 7.35 34.65 6 33 6H24.5C24.225 6 24 6.22375 24 6.5C24 6.77625 24.225 7 24.5 7ZM4.5 26C4.77613 26 5 25.7761 5 25.5V9C5 7.89562 5.89562 7 7 7H15.5C15.775 7 16 6.77625 16 6.5C16 6.22375 15.775 6 15.5 6H7C5.35 6 4 7.35 4 9V25.5C4 25.775 4.22375 26 4.5 26ZM39 28H1C0.44925 28 0 28.45 0 29V30C0 32.2 1.80063 34 4 34H36C38.1994 34 40 32.2 40 30V29C40 28.45 39.55 28 39 28ZM39 30C39 31.6544 37.6544 33 36 33H4C2.34563 33 1 31.6544 1 30V29H39V30Z"/>
</symbol><symbol id="map-location-dot" viewBox="0 0 40 40">
<path d="M23.3333 9.77778C23.3333 11.6181 21.8403 13.1111 20 13.1111C18.1597 13.1111 16.6667 11.6181 16.6667 9.77778C16.6667 7.93681 18.1597 6.44444 20 6.44444C21.8403 6.44444 23.3333 7.93681 23.3333 9.77778ZM20 7.55556C18.7708 7.55556 17.7778 8.55069 17.7778 9.77778C17.7778 11.0069 18.7708 12 20 12C21.2292 12 22.2222 11.0069 22.2222 9.77778C22.2222 8.55069 21.2292 7.55556 20 7.55556ZM18.9722 23.6042C16.7431 20.8819 11.6667 14.125 11.6667 10.3333C11.6667 5.73125 15.3958 2 20 2C24.6042 2 28.3333 5.73125 28.3333 10.3333C28.3333 14.125 23.2569 20.8819 21.0278 23.6042C20.4931 24.3333 19.5069 24.3333 18.9722 23.6042ZM26.4792 13.1944C26.9722 12.0347 27.2222 11.0625 27.2222 10.3333C27.2222 6.34444 23.9861 3.11111 20 3.11111C16.0139 3.11111 12.7778 6.34444 12.7778 10.3333C12.7778 11.0625 13.0278 12.0347 13.5208 13.1944C14 14.3333 14.6736 15.5694 15.4306 16.7986C16.8819 19.25 18.7361 21.5972 19.8403 22.9097C19.9236 23.0833 20.0764 23.0833 20.1597 22.9097C21.2639 21.5972 23.0556 19.25 24.5694 16.7986C25.3264 15.5694 26 14.3333 26.4792 13.1944ZM29.5556 14.4861C29.6458 14.2639 29.7431 14.0278 29.8333 13.7917L37.0208 11.1806C38.4653 10.6528 40 11.7292 40 13.2708V31.3889C40 32.3194 39.4167 33.1597 38.5347 33.4792L27.4097 37.5208C27.2986 37.5625 27.1736 37.5694 27.0556 37.5278L12.7917 33.1389L2.98194 36.7083C1.53264 37.2361 0 36.1597 0 34.6181V16.5C0 15.5694 0.584583 14.7292 1.4625 14.4097L9.53472 11.4792C9.59722 11.8403 9.67361 12.2083 9.77083 12.5694L1.84236 15.4583C1.40347 15.6181 1.11111 16.0347 1.11111 16.5V34.6181C1.11111 35.3889 1.87708 35.9306 2.60208 35.6667L12.2222 32.1667V22.4931C12.2222 22.25 12.4722 21.9375 12.7778 21.9375C13.0833 21.9375 13.3333 22.25 13.3333 22.4931V32.1458L26.6667 36.25V22.4931C26.6667 22.25 26.9167 21.9375 27.2222 21.9375C27.5278 21.9375 27.7778 22.25 27.7778 22.4931V36.2083L38.1597 32.4306C38.5972 32.2708 38.8889 31.8542 38.8889 31.3889V13.2708C38.8889 12.5 38.0625 11.9583 37.3958 12.2222L29.2431 15.1875C29.3472 14.9583 29.4514 14.7222 29.5556 14.4861Z"/>
</symbol><symbol id="message-check" viewBox="0 0 42 40">
<path d="M28.0547 10.8047L19.0547 19.7422L14.5703 15.1797C14.3262 14.9355 13.9306 14.9355 13.6867 15.1797C13.4426 15.4238 13.4426 15.8193 13.6867 16.0633L18.6797 21.0625C18.8017 21.1845 18.9605 21.2456 19.1216 21.2456C19.2827 21.2456 19.4414 21.1846 19.5634 21.0625L28.9384 11.7578C29.1826 11.5137 29.1826 11.1182 28.9384 10.8742C28.6953 10.5625 28.3047 10.5625 28.0547 10.8047ZM35.9297 0H5.92969C3.17578 0 0.929688 2.24609 0.929688 4.92969V27.3594C0.929688 30.1133 3.17578 32.2891 5.92969 32.2891H13.4297V38.7812C13.4297 39.6094 13.9609 40 14.4531 40C14.6382 40 14.827 39.9417 14.9959 39.8184L24.7537 32.4981H36.0037C38.7577 32.4981 41.0037 30.252 41.0037 27.5684V4.92969C40.9297 2.24609 38.75 0 35.9297 0ZM39.6797 27.4297C39.6797 29.4969 37.9977 31.1094 35.9297 31.1094H24.2656L14.6797 38.3031V31.1094H5.92969C3.86172 31.1094 2.17969 29.4273 2.17969 27.4297V5C2.17969 2.93281 3.86172 1.32031 5.92969 1.32031H35.9297C37.9977 1.32031 39.6797 3.00234 39.6797 5V27.4297Z"/>
</symbol><symbol id="mobile-notch" viewBox="0 0 40 40">
<path d="M23.75 34.375H16.25C15.9058 34.375 15.625 34.6545 15.625 35C15.625 35.3455 15.9058 35.625 16.25 35.625H23.75C24.0942 35.625 24.375 35.3455 24.375 35C24.375 34.6545 24.0938 34.375 23.75 34.375ZM28.75 0H11.25C9.17969 0 7.5 1.67969 7.5 3.75V36.25C7.5 38.3203 9.17969 40 11.25 40H28.75C30.8203 40 32.5 38.3203 32.5 36.25V3.75C32.5 1.67969 30.8203 0 28.75 0ZM16.25 1.25H23.75V3.125C23.75 3.46922 23.4692 3.75 23.125 3.75H16.875C16.5312 3.75 16.25 3.46953 16.25 3.125V1.25ZM31.25 36.25C31.25 37.6281 30.1281 38.75 28.75 38.75H11.25C9.87188 38.75 8.75 37.6281 8.75 36.25V3.75C8.75 2.37188 9.87188 1.25 11.25 1.25H15V3.125C15 4.15859 15.8438 5 16.875 5H23.125C24.1562 5 25 4.15859 25 3.125V1.25H28.75C30.1281 1.25 31.25 2.37188 31.25 3.75V36.25Z"/>
</symbol><symbol id="ruler-triangle" viewBox="0 0 40 40">
<path d="M9.75781 19.4219C9.99219 19.3281 10.2656 19.3828 10.4453 19.5547L20.4453 29.5547C20.6172 29.7344 20.6719 30.0078 20.5781 30.2422C20.4844 30.4766 20.25 30.625 20 30.625H10C9.65625 30.625 9.375 30.3438 9.375 30V20C9.375 19.75 9.52344 19.5156 9.75781 19.4219ZM10.625 21.5078V29.375H18.4922L10.625 21.5078ZM2.34375e-05 35V3.53516C2.34375e-05 1.58281 1.58281 0 3.53594 0C4.47344 0 5.37266 0.3725 6.03594 1.03516L38.9609 33.9609C39.625 34.625 40 35.5234 40 36.4609C40 38.4141 38.4141 40 36.4609 40H5C2.23828 40 0 37.7578 0 35H2.34375e-05ZM1.25 3.53516V35C1.25 37.0703 2.92891 38.75 5 38.75H36.4609C37.7266 38.75 38.75 37.7266 38.75 36.4609C38.75 35.7891 38.5078 35.2734 38.0781 34.8516L34.5547 31.2578L32.3203 33.5703C32.0703 33.8125 31.6797 33.8125 31.4297 33.5703C31.1875 33.3203 31.1875 32.9297 31.4297 32.6797L33.6719 30.4453L28.3047 25.0078L26.0703 27.3203C25.8203 27.5625 25.4297 27.5625 25.1797 27.3203C24.9375 27.0703 24.9375 26.6797 25.1797 26.4297L27.4219 24.1953L22.0547 18.7578L19.8203 21.0703C19.5703 21.3125 19.1797 21.3125 18.9297 21.0703C18.6875 20.8203 18.6875 20.4297 18.9297 20.1797L21.1719 17.9453L15.8047 12.5078L13.5703 14.8203C13.3203 15.0625 12.9297 15.0625 12.6797 14.8203C12.4375 14.5703 12.4375 14.1797 12.6797 13.9297L14.9219 11.6953L9.55469 6.32578L7.31719 8.57031C7.07266 8.8125 6.67734 8.8125 6.43281 8.57031C6.18906 8.32031 6.18906 7.92969 6.43281 7.68281L8.67188 5.44219L5.15156 1.91953C4.72344 1.49062 4.14141 1.25 3.53594 1.25C2.27344 1.25 1.25 2.27344 1.25 3.53516Z"/>
</symbol><symbol id="users-rays" viewBox="0 0 41 40">
<path d="M0.146437 4.14644C0.341688 3.95119 0.658125 3.95119 0.85375 4.14644L5.85375 9.14625C6.04875 9.34187 6.04875 9.65813 5.85375 9.85375C5.65813 10.0488 5.34187 10.0488 5.14625 9.85375L0.146437 4.85375C-0.0488125 4.65812 -0.0488125 4.34169 0.146437 4.14644ZM39.8563 4.85375L34.8563 9.85375C34.6563 10.0488 34.3437 10.0488 34.1437 9.85375C33.95 9.65813 33.95 9.34187 34.1437 9.14625L39.1437 4.14644C39.3437 3.95121 39.6563 3.95121 39.8563 4.14644C40.05 4.34175 40.05 4.65812 39.8563 4.85375ZM0.85375 35.8563C0.658125 36.05 0.34175 36.05 0.146437 35.8563C-0.0487937 35.6563 -0.0487937 35.3437 0.146437 35.1437L5.14625 30.1437C5.34187 29.95 5.65813 29.95 5.85375 30.1437C6.04875 30.3437 6.04875 30.6563 5.85375 30.8563L0.85375 35.8563ZM39.8563 35.8563C39.6563 36.05 39.3437 36.05 39.1437 35.8563L34.1437 30.8563C33.95 30.6563 33.95 30.3437 34.1437 30.1437C34.3437 29.95 34.6563 29.95 34.8563 30.1437L39.8563 35.1437C40.05 35.3437 40.05 35.6563 39.8563 35.8563ZM16 16C16 13.7938 17.7938 12 20 12C22.2062 12 24 13.7938 24 16C24 18.2062 22.2062 20 20 20C17.7938 20 16 18.2062 16 16ZM20 13C18.3438 13 17 14.3438 17 16C17 17.6562 18.3438 19 20 19C21.6562 19 23 17.6562 23 16C23 14.3438 21.6562 13 20 13ZM22.5 22C24.9875 22 27 24.0125 27 26.5C27 27.3313 26.3313 28 25.5 28H14.5C13.6687 28 13 27.3313 13 26.5C13 24.0125 15.0125 22 17.5 22H22.5ZM14.5 27H25.5C25.775 27 26 26.775 26 26.5C26 24.5688 24.4312 23 22.5 23H17.5C15.5688 23 14 24.5688 14 26.5C14 26.775 14.225 27 14.5 27ZM9.5 21C8.11875 21 7 22.1187 7 23.5C7 24.05 7.45 24.5 8 24.5H10C10.275 24.5 10.5 24.725 10.5 25C10.5 25.275 10.275 25.5 10 25.5H8C6.89375 25.5 6 24.6063 6 23.5C6 21.5688 7.56875 20 9.5 20H13.5C13.775 20 14 20.225 14 20.5C14 20.775 13.775 21 13.5 21H9.5ZM14 15C14 16.6562 12.6562 18 11 18C9.34375 18 8 16.6562 8 15C8 13.3438 9.34375 12 11 12C12.6562 12 14 13.3438 14 15ZM11 13C9.89375 13 9 13.8937 9 15C9 16.1063 9.89375 17 11 17C12.1063 17 13 16.1063 13 15C13 13.8937 12.1063 13 11 13ZM26.5 21C26.225 21 26 20.775 26 20.5C26 20.225 26.225 20 26.5 20H30.5C32.4312 20 34 21.5688 34 23.5C34 24.6063 33.1063 25.5 32 25.5H30C29.725 25.5 29.5 25.275 29.5 25C29.5 24.725 29.725 24.5 30 24.5H32C32.55 24.5 33 24.05 33 23.5C33 22.1187 31.8813 21 30.5 21H26.5ZM29 12C30.6562 12 32 13.3438 32 15C32 16.6562 30.6562 18 29 18C27.3438 18 26 16.6562 26 15C26 13.3438 27.3438 12 29 12ZM27 15C27 16.1063 27.8937 17 29 17C30.1063 17 31 16.1063 31 15C31 13.8937 30.1063 13 29 13C27.8937 13 27 13.8937 27 15Z"/>
</symbol></svg>