<svg width="1300" height="823" viewBox="0 0 1300 823" fill="none" xmlns="http://www.w3.org/2000/svg">
<path d="M267.045 -191C267.045 -191 501.284 118.937 704.935 251.948C962.566 420.215 1455.71 491.125 1455.71 491.125" stroke="url(#paint0_radial_9_466)"/>
<path d="M-49.5362 -23.1264C-49.5362 -23.1264 138.014 317.099 320.571 477.843C551.516 681.195 1029.47 821.839 1029.47 821.839" stroke="url(#paint1_radial_9_466)"/>
<path d="M247.259 -180.508C247.259 -180.508 478.711 131.515 681.162 266.346C937.275 436.915 1429.76 512.241 1429.76 512.241" stroke="url(#paint2_radial_9_466)"/>
<path d="M227.473 -170.016C227.473 -170.016 456.119 144.069 657.354 280.708C911.928 453.565 1403.72 533.302 1403.72 533.302" stroke="url(#paint3_radial_9_466)"/>
<path d="M207.686 -159.524C207.686 -159.524 433.509 156.597 633.512 295.034C886.527 470.165 1377.58 554.305 1377.58 554.305" stroke="url(#paint4_radial_9_466)"/>
<path d="M187.9 -149.032C187.9 -149.032 410.881 169.1 609.635 309.324C861.071 486.715 1351.35 575.252 1351.35 575.252" stroke="url(#paint5_radial_9_466)"/>
<path d="M168.114 -138.54C168.114 -138.54 388.235 181.577 585.725 323.577C835.561 503.214 1325.03 596.14 1325.03 596.14" stroke="url(#paint6_radial_9_466)"/>
<path d="M148.327 -128.047C148.327 -128.047 365.571 194.029 561.781 337.792C809.997 519.661 1298.61 616.97 1298.61 616.97" stroke="url(#paint7_radial_9_466)"/>
<path d="M128.541 -117.555C128.541 -117.555 342.89 206.455 537.803 351.971C784.38 536.056 1272.11 637.739 1272.11 637.739" stroke="url(#paint8_radial_9_466)"/>
<path d="M108.755 -107.063C108.755 -107.063 320.192 218.855 513.794 366.111C758.711 552.399 1245.51 658.448 1245.51 658.448" stroke="url(#paint9_radial_9_466)"/>
<path d="M88.9683 -96.5711C88.9683 -96.5711 297.477 231.228 489.751 380.214C732.989 568.688 1218.81 679.096 1218.81 679.096" stroke="url(#paint10_radial_9_466)"/>
<path d="M69.182 -86.079C69.182 -86.079 274.745 243.576 465.676 394.278C707.215 584.925 1192.03 699.681 1192.03 699.681" stroke="url(#paint11_radial_9_466)"/>
<path d="M49.3956 -75.5869C49.3956 -75.5869 251.996 255.897 441.57 408.303C681.391 601.107 1165.16 720.203 1165.16 720.203" stroke="url(#paint12_radial_9_466)"/>
<path d="M29.6092 -65.0948C29.6092 -65.0948 229.231 268.191 417.431 422.29C655.515 617.235 1138.2 740.661 1138.2 740.661" stroke="url(#paint13_radial_9_466)"/>
<path d="M9.82286 -54.6027C9.82286 -54.6027 206.45 280.458 393.262 436.238C629.59 633.308 1111.15 761.055 1111.15 761.055" stroke="url(#paint14_radial_9_466)"/>
<path d="M-9.96335 -44.1106C-9.96335 -44.1106 183.654 292.699 369.062 450.146C603.614 649.326 1084.01 781.383 1084.01 781.383" stroke="url(#paint15_radial_9_466)"/>
<path d="M-29.7498 -33.6185C-29.7498 -33.6185 160.842 304.912 344.832 464.015C577.59 665.289 1056.78 801.644 1056.78 801.644" stroke="url(#paint16_radial_9_466)"/>
<defs>
<radialGradient id="paint0_radial_9_466" cx="0" cy="0" r="1" gradientUnits="userSpaceOnUse" gradientTransform="translate(861.376 150.063) rotate(90) scale(341.063 594.331)">
<stop stop-color="#F8F8F8" stop-opacity="0.2"/>
<stop offset="1" stop-color="#F8F8F8" stop-opacity="0"/>
</radialGradient>
<radialGradient id="paint1_radial_9_466" cx="0" cy="0" r="1" gradientUnits="userSpaceOnUse" gradientTransform="translate(489.964 399.356) rotate(98.2147) scale(341.063 594.331)">
<stop stop-color="#F8F8F8" stop-opacity="0.2"/>
<stop offset="1" stop-color="#F8F8F8" stop-opacity="0"/>
</radialGradient>
<radialGradient id="paint2_radial_9_466" cx="0" cy="0" r="1" gradientUnits="userSpaceOnUse" gradientTransform="translate(838.51 165.867) rotate(90.5134) scale(341.063 594.331)">
<stop stop-color="#F8F8F8" stop-opacity="0.2"/>
<stop offset="1" stop-color="#F8F8F8" stop-opacity="0"/>
</radialGradient>
<radialGradient id="paint3_radial_9_466" cx="0" cy="0" r="1" gradientUnits="userSpaceOnUse" gradientTransform="translate(815.596 181.643) rotate(91.0268) scale(341.063 594.331)">
<stop stop-color="#F8F8F8" stop-opacity="0.2"/>
<stop offset="1" stop-color="#F8F8F8" stop-opacity="0"/>
</radialGradient>
<radialGradient id="paint4_radial_9_466" cx="0" cy="0" r="1" gradientUnits="userSpaceOnUse" gradientTransform="translate(792.635 197.391) rotate(91.5403) scale(341.063 594.331)">
<stop stop-color="#F8F8F8" stop-opacity="0.2"/>
<stop offset="1" stop-color="#F8F8F8" stop-opacity="0"/>
</radialGradient>
<radialGradient id="paint5_radial_9_466" cx="0" cy="0" r="1" gradientUnits="userSpaceOnUse" gradientTransform="translate(769.627 213.11) rotate(92.0537) scale(341.063 594.331)">
<stop stop-color="#F8F8F8" stop-opacity="0.2"/>
<stop offset="1" stop-color="#F8F8F8" stop-opacity="0"/>
</radialGradient>
<radialGradient id="paint6_radial_9_466" cx="0" cy="0" r="1" gradientUnits="userSpaceOnUse" gradientTransform="translate(746.572 228.8) rotate(92.5671) scale(341.063 594.331)">
<stop stop-color="#F8F8F8" stop-opacity="0.2"/>
<stop offset="1" stop-color="#F8F8F8" stop-opacity="0"/>
</radialGradient>
<radialGradient id="paint7_radial_9_466" cx="0" cy="0" r="1" gradientUnits="userSpaceOnUse" gradientTransform="translate(723.471 244.461) rotate(93.0805) scale(341.063 594.331)">
<stop stop-color="#F8F8F8" stop-opacity="0.2"/>
<stop offset="1" stop-color="#F8F8F8" stop-opacity="0"/>
</radialGradient>
<radialGradient id="paint8_radial_9_466" cx="0" cy="0" r="1" gradientUnits="userSpaceOnUse" gradientTransform="translate(700.323 260.092) rotate(93.5939) scale(341.063 594.331)">
<stop stop-color="#F8F8F8" stop-opacity="0.2"/>
<stop offset="1" stop-color="#F8F8F8" stop-opacity="0"/>
</radialGradient>
<radialGradient id="paint9_radial_9_466" cx="0" cy="0" r="1" gradientUnits="userSpaceOnUse" gradientTransform="translate(677.13 275.693) rotate(94.1073) scale(341.063 594.331)">
<stop stop-color="#F8F8F8" stop-opacity="0.2"/>
<stop offset="1" stop-color="#F8F8F8" stop-opacity="0"/>
</radialGradient>
<radialGradient id="paint10_radial_9_466" cx="0" cy="0" r="1" gradientUnits="userSpaceOnUse" gradientTransform="translate(653.891 291.262) rotate(94.6208) scale(341.063 594.331)">
<stop stop-color="#F8F8F8" stop-opacity="0.2"/>
<stop offset="1" stop-color="#F8F8F8" stop-opacity="0"/>
</radialGradient>
<radialGradient id="paint11_radial_9_466" cx="0" cy="0" r="1" gradientUnits="userSpaceOnUse" gradientTransform="translate(630.607 306.801) rotate(95.1342) scale(341.063 594.331)">
<stop stop-color="#F8F8F8" stop-opacity="0.2"/>
<stop offset="1" stop-color="#F8F8F8" stop-opacity="0"/>
</radialGradient>
<radialGradient id="paint12_radial_9_466" cx="0" cy="0" r="1" gradientUnits="userSpaceOnUse" gradientTransform="translate(607.277 322.308) rotate(95.6476) scale(341.063 594.331)">
<stop stop-color="#F8F8F8" stop-opacity="0.2"/>
<stop offset="1" stop-color="#F8F8F8" stop-opacity="0"/>
</radialGradient>
<radialGradient id="paint13_radial_9_466" cx="0" cy="0" r="1" gradientUnits="userSpaceOnUse" gradientTransform="translate(583.903 337.783) rotate(96.161) scale(341.063 594.331)">
<stop stop-color="#F8F8F8" stop-opacity="0.2"/>
<stop offset="1" stop-color="#F8F8F8" stop-opacity="0"/>
</radialGradient>
<radialGradient id="paint14_radial_9_466" cx="0" cy="0" r="1" gradientUnits="userSpaceOnUse" gradientTransform="translate(560.485 353.226) rotate(96.6744) scale(341.063 594.331)">
<stop stop-color="#F8F8F8" stop-opacity="0.2"/>
<stop offset="1" stop-color="#F8F8F8" stop-opacity="0"/>
</radialGradient>
<radialGradient id="paint15_radial_9_466" cx="0" cy="0" r="1" gradientUnits="userSpaceOnUse" gradientTransform="translate(537.022 368.636) rotate(97.1878) scale(341.063 594.331)">
<stop stop-color="#F8F8F8" stop-opacity="0.2"/>
<stop offset="1" stop-color="#F8F8F8" stop-opacity="0"/>
</radialGradient>
<radialGradient id="paint16_radial_9_466" cx="0" cy="0" r="1" gradientUnits="userSpaceOnUse" gradientTransform="translate(513.515 384.013) rotate(97.7013) scale(341.063 594.331)">
<stop stop-color="#F8F8F8" stop-opacity="0.2"/>
<stop offset="1" stop-color="#F8F8F8" stop-opacity="0"/>
</radialGradient>
</defs>
</svg>
