<svg width="40" height="40" viewBox="0 0 40 40" fill="none" xmlns="http://www.w3.org/2000/svg">
<path d="M37.5 2.5H2.5C1.11797 2.5 0 3.61797 0 5V10C0 10.6884 0.561562 11.25 1.25 11.25H2.5V33.75C2.5 35.8203 4.17891 37.5 6.25 37.5H33.75C35.8211 37.5 37.5 35.8211 37.5 33.75V11.25H38.75C39.4375 11.25 40 10.6875 40 10V5C40 3.61797 38.8828 2.5 37.5 2.5ZM36.25 33.75C36.25 35.1281 35.1281 36.25 33.75 36.25H6.25C4.87188 36.25 3.75 35.1281 3.75 33.75V11.25H36.25V33.75ZM38.75 10H1.25V5C1.25 4.31094 1.81078 3.75 2.5 3.75H37.5C38.1892 3.75 38.75 4.31094 38.75 5V10ZM13.125 20H26.875C27.2188 20 27.5 19.7188 27.5 19.375C27.5 19.0312 27.2188 18.75 26.875 18.75H13.125C12.7812 18.75 12.5 19.0313 12.5 19.3047C12.5 19.5781 12.7812 20 13.125 20Z" fill="#222222"/>
</svg>
