<svg width="40" height="40" viewBox="0 0 40 40" fill="none" xmlns="http://www.w3.org/2000/svg">
<path d="M36.25 7.5H30V3.125C30 1.40156 28.6016 0 26.875 0H13.125C11.3984 0 10 1.40156 10 3.125V7.5H3.75C1.67891 7.5 0 9.17969 0 11.25V33.75C0 35.8203 1.67891 37.5 3.75 37.5H36.25C38.3211 37.5 40 35.8211 40 33.75V11.25C40 9.17969 38.3203 7.5 36.25 7.5ZM11.25 3.125C11.25 2.09219 12.0922 1.25 13.125 1.25H26.875C27.9078 1.25 28.75 2.09219 28.75 3.125V7.5H11.25V3.125ZM38.75 33.75C38.75 35.1281 37.6281 36.25 36.25 36.25H3.75C2.37188 36.25 1.25 35.1281 1.25 33.75V21.25H13.75V25.625C13.75 26.6562 14.5938 27.5 15.625 27.5H24.375C25.4078 27.5 26.25 26.6578 26.25 25.625V21.25H38.75V33.75ZM25 21.25V25.625C25 25.9692 24.7192 26.25 24.375 26.25H15.625C15.2812 26.25 15 25.9688 15 25.625V21.25H25ZM1.25 20V11.25C1.25 9.87188 2.37188 8.75 3.75 8.75H36.25C37.6281 8.75 38.75 9.87188 38.75 11.25V20H1.25Z" fill="#222222"/>
</svg>
