<svg width="40" height="40" viewBox="0 0 40 40" fill="none" xmlns="http://www.w3.org/2000/svg">
<path d="M21.25 6.25C21.25 6.94063 20.6875 7.5 19.9297 7.5C19.3125 7.5 18.6797 6.94063 18.6797 6.25C18.6797 5.55937 19.3125 5 19.9297 5C20.6875 5 21.25 5.55937 21.25 6.25ZM13.6797 5H13.875C14.4531 2.14687 16.9766 0 19.9297 0C23.0234 0 25.4766 2.14687 26.125 5H26.25C28.3203 5 30 6.67891 30 8.75V10C30 11.3828 28.8828 12.5 27.5 12.5H12.4297C11.1195 12.5 9.92969 11.3828 9.92969 10V8.75C9.92969 6.67891 11.6789 5 13.6797 5ZM19.9297 1.25C17.5859 1.25 15.5625 2.96719 15.1016 5.24844L14.8984 6.25H13.75C12.3695 6.25 11.25 7.36953 11.25 8.75V10C11.25 10.6875 11.8094 11.25 12.5 11.25H27.5C28.1875 11.25 28.75 10.6875 28.75 10V8.75C28.75 7.36953 27.6328 6.25 26.25 6.25H25.1016L24.8984 5.24844C24.4375 2.96719 22.4141 1.25 20 1.25H19.9297ZM7.97734 8.89844C6.91875 9.42969 6.17969 10.5078 6.17969 11.6953V35.625C6.17969 37.3516 7.64922 38.75 9.30469 38.75H30.625C32.3516 38.75 33.75 37.3516 33.75 35.625V11.6953C33.75 10.5078 33.0781 9.42969 32.0234 8.89844L31.5937 8.6875C31.2891 8.53125 31.1641 8.15625 31.3125 7.84375C31.4687 7.53672 31.8438 7.41172 32.1563 7.56562L32.5781 7.77969C34.0625 8.52344 35 10.0391 35 11.6953V35.625C35 38.0391 33.0391 40 30.625 40H9.375C6.95859 40 5 38.0391 5 35.625V11.6953C5 10.0391 5.93594 8.52344 7.41875 7.77969L7.84531 7.56562C8.15391 7.41172 8.52969 7.53672 8.68437 7.84375C8.83828 8.15625 8.71328 8.53125 8.40469 8.6875L7.97734 8.89844ZM13.0547 20.625C13.0547 18.2109 15.0859 16.25 17.4297 16.25H21.8906C24.6406 16.25 26.8047 18.4844 26.8047 21.2344C26.8047 22.9062 26.0313 24.4687 24.6328 25.3906L20.5547 28.0391V30C20.5547 30.3438 20.3438 30.625 19.9297 30.625C19.6563 30.625 19.3047 30.3438 19.3047 30V27.6953C19.3047 27.4922 19.4766 27.2891 19.6563 27.1797L23.9453 24.3516C24.9922 23.6563 25.5547 22.4844 25.5547 21.2344C25.5547 19.1719 23.9531 17.5 21.8906 17.5H17.4297C15.7734 17.5 14.3047 18.8984 14.3047 20.625V21.1328C14.3047 21.4141 14.0937 21.7578 13.6797 21.7578C13.4062 21.7578 13.0547 21.4141 13.0547 21.1328V20.625ZM21.1797 33.75C21.1797 34.4375 20.6875 35 19.9297 35C19.3125 35 18.6797 34.4375 18.6797 33.75C18.6797 33.0625 19.3125 32.5 19.9297 32.5C20.6875 32.5 21.1797 33.0625 21.1797 33.75Z" fill="#222222"/>
</svg>
