<svg width="40" height="40" viewBox="0 0 40 40" fill="none" xmlns="http://www.w3.org/2000/svg">
<path d="M12.5 12.5H27.5C28.8805 12.5 30 11.3805 30 10V8.875C30 6.73516 28.2656 5 26.125 5C25.4766 2.14687 23.0234 0 20 0C16.9766 0 14.4531 2.14687 13.875 5C11.7352 5 10 6.73516 10 8.875V10C10 11.3828 11.1195 12.5 12.5 12.5ZM11.25 8.875C11.25 7.42578 12.4258 6.25 13.875 6.25H14.8969L15.0411 5.53953C15.4306 3.62078 16.7809 1.9325 18.6723 1.42625C21.5575 0.654375 24.3411 2.50672 24.8981 5.24891L25.1016 6.25H26.1234C27.5078 6.25 28.75 7.42578 28.75 8.875V10C28.75 10.6904 28.1904 11.25 27.5 11.25H12.5C11.8094 11.25 11.25 10.6875 11.25 10V8.875ZM32.75 7.8125C32.4302 7.6782 32.0664 7.81738 31.9273 8.13719C31.7906 8.45211 31.9347 8.82078 32.252 8.95984C33.1641 9.35937 33.75 10.2578 33.75 11.25V36.25C33.75 37.6297 32.6297 38.75 31.25 38.75H8.75C7.37031 38.75 6.25 37.6297 6.25 36.25V11.25C6.25 10.2586 6.83836 9.36016 7.75156 8.96016C8.06648 8.82344 8.21055 8.45477 8.07141 8.1375C7.93437 7.82031 7.57344 7.67344 7.24844 7.82031C5.88359 8.41406 5 9.69531 5 11.25V36.25C5 38.3203 6.68203 40 8.75 40H31.25C33.318 40 35 38.318 35 36.25V11.25C35 9.75781 34.1172 8.40625 32.75 7.8125ZM20 7.5C20.6903 7.5 21.25 6.94031 21.25 6.25C21.25 5.55937 20.6875 5 20 5C19.3125 5 18.75 5.55937 18.75 6.25C18.75 6.94063 19.3125 7.5 20 7.5ZM20 25C22.7617 25 25 22.7617 25 20C25 17.2383 22.7617 15 20 15C17.2383 15 15 17.2422 15 20C15 22.7578 17.2422 25 20 25ZM20 16.25C22.068 16.25 23.75 17.932 23.75 20C23.75 22.068 22.0703 23.75 20 23.75C17.9297 23.75 16.25 22.0703 16.25 20C16.25 17.9297 17.9297 16.25 20 16.25ZM11.25 32.5C11.25 33.8805 12.3695 35 13.75 35H26.25C27.6305 35 28.75 33.8805 28.75 32.5C28.75 29.7383 26.5117 27.5 23.75 27.5H16.25C13.4922 27.5 11.25 29.7422 11.25 32.5ZM16.25 28.75H23.75C25.818 28.75 27.5 30.432 27.5 32.5C27.5 33.1892 26.9394 33.75 26.25 33.75H13.75C13.0625 33.75 12.5 33.1875 12.5 32.5C12.5 30.4297 14.1797 28.75 16.25 28.75Z" fill="#222222"/>
</svg>
