<svg width="40" height="40" viewBox="0 0 40 40" fill="none" xmlns="http://www.w3.org/2000/svg">
<path d="M12.9375 11.0486C12.7205 11.2656 12.7205 11.6172 12.9375 11.834L19.5417 18.4382C19.7083 18.6042 19.8472 18.6667 20 18.6667C20.1528 18.6667 20.2926 18.6043 20.3931 18.5036L26.9972 11.8994C27.2142 11.6824 27.2142 11.3308 26.9972 11.114C26.7802 10.8972 26.4286 10.897 26.2118 11.114L20.5556 16.7708V2.55556C20.5556 2.24847 20.3056 2 20 2C19.6944 2 19.4444 2.24847 19.4444 2.55556V16.7708L13.7292 11.0486C13.5069 10.8333 13.1597 10.8333 12.9375 11.0486ZM36.6667 2H25C24.6944 2 24.4444 2.24875 24.4444 2.55556C24.4444 2.86236 24.6932 3.11111 25 3.11111H36.6667C37.8938 3.11111 38.8889 4.10625 38.8889 5.33333V27.5556C38.8889 28.7826 37.8938 29.7778 36.6667 29.7778H3.33333C2.10625 29.7778 1.11111 28.7826 1.11111 27.5556V5.33333C1.11111 4.10625 2.10625 3.11111 3.33333 3.11111H15C15.3056 3.11111 15.5556 2.8625 15.5556 2.55556C15.5556 2.24861 15.3056 2 15 2H3.33333C1.49236 2 0 3.49236 0 5.33333V27.5556C0 29.3958 1.49236 30.8889 3.33333 30.8889H15.8958L14.0438 36.4444H9.44444C9.13889 36.4444 8.88889 36.6944 8.88889 37C8.88889 37.3056 9.13889 37.5556 9.44444 37.5556H30.5556C30.8615 37.5556 31.1111 37.3071 31.1111 37C31.1111 36.6929 30.8615 36.4444 30.5556 36.4444H25.9576L24.1056 30.8889H36.6667C38.5076 30.8889 40 29.3965 40 27.5556V5.33333C40 3.49236 38.5069 2 36.6667 2ZM24.7847 36.4444H15.2153L17.0674 30.8889H22.9326L24.7847 36.4444ZM15 7.55556C15.3056 7.55556 15.5556 7.30694 15.5556 7C15.5556 6.69306 15.3056 6.44444 15 6.44444H4.44444V22H35.5556V6.44444H25C24.6944 6.44444 24.4444 6.69306 24.4444 7C24.4444 7.30694 24.6932 7.55556 25 7.55556H34.4444V20.8889H5.55556V7.55556H15Z" fill="#222222"/>
</svg>
