<svg width="40" height="40" viewBox="0 0 40 40" fill="none" xmlns="http://www.w3.org/2000/svg">
<path d="M0 10C0 7.23828 2.23828 5 5 5H35C37.7578 5 40 7.23828 40 10V30C40 32.7578 37.7578 35 35 35H5C2.23828 35 0 32.7578 0 30V10ZM1.25 10V12.2031L17.25 25.1094C18.8594 26.3984 21.1406 26.3984 22.75 25.1094L38.75 12.2031V10C38.75 7.92969 37.0703 6.25 35 6.25H4.92969C2.92891 6.25 1.17969 7.92969 1.17969 10H1.25ZM1.25 13.8047V30C1.25 32.0703 2.92891 33.75 5 33.75H35C37.0703 33.75 38.75 32.0703 38.75 30V13.8047L23.5313 26.0781C21.4688 27.7422 18.5313 27.7422 16.4688 26.0781L1.25 13.8047Z" fill="#222222"/>
</svg>
