<svg width="40" height="40" viewBox="0 0 40 40" fill="none" xmlns="http://www.w3.org/2000/svg">
<path d="M12.5 13.75C12.5 13.8281 12.4902 13.9014 12.4902 13.9795C12.4902 13.9795 12.4805 13.9698 12.4902 13.9795L12.5 13.75ZM26.25 16.875C28.6625 16.875 30.625 14.9125 30.625 12.5C30.625 10.1516 28.7648 8.22969 26.4406 8.12969C25.9719 7.10703 25.1164 6.30625 24.0367 5.89844C22.9992 5.51023 21.8687 5.53711 20.8594 5.95459C20.0391 4.95625 18.8203 4.375 17.5 4.375C16.1797 4.375 14.9648 4.95609 14.1391 5.95469C13.6172 5.7375 13.0625 5.625 12.5 5.625C10.2867 5.625 8.45078 7.27812 8.16406 9.41406C6.29062 9.66406 4.76562 11.1016 4.43281 13.0156C4.10391 14.9688 5.11953 16.8672 6.87891 17.6875C6.97891 20.0156 8.89844 21.875 11.25 21.875C11.4612 21.875 11.6699 21.8579 11.875 21.8262V24.375C11.875 24.7192 12.1545 25 12.4999 25C12.8454 25 13.1251 24.7192 13.1251 24.375V21.0156C13.1251 20.8081 13.0225 20.6152 12.8529 20.5005C12.6797 20.3828 12.4687 20.3594 12.2734 20.4375C11.9453 20.5625 11.6016 20.625 11.25 20.625C9.52656 20.625 8.125 19.2234 8.12891 17.4703C8.13257 17.4435 8.14477 17.3019 8.14477 17.275C8.14477 17.0089 7.97509 16.772 7.7236 16.6842C6.27812 16.1875 5.4125 14.7266 5.66406 13.2266C5.92656 11.6484 7.22422 10.625 8.75 10.625C9.09547 10.625 9.375 10.3442 9.375 10C9.375 8.27656 10.7766 6.875 12.5 6.875C13.0286 6.875 13.5547 7.01906 14.0219 7.29C14.3112 7.45359 14.6848 7.36568 14.8641 7.0825C15.4375 6.16953 16.4219 5.625 17.5 5.625C18.5781 5.625 19.5609 6.16945 20.1359 7.08281C20.3141 7.36602 20.6889 7.45633 20.9781 7.28789C21.7766 6.82156 22.732 6.74586 23.5977 7.07062C24.4672 7.39781 25.132 8.08156 25.4242 8.95031C25.5078 9.20313 25.75 9.375 26.0156 9.375H26.25C27.9734 9.375 29.375 10.7766 29.375 12.5C29.375 14.2234 27.9734 15.625 26.25 15.625H22.2656C22.0593 15.625 21.8664 15.7275 21.7492 15.8984C21.6333 16.0669 21.6088 16.2842 21.6833 16.477C21.8125 16.8047 21.875 17.1484 21.875 17.5C21.875 19.2234 20.4734 20.625 18.75 20.625C18.3972 20.625 18.053 20.5615 17.7273 20.4345C17.5357 20.3564 17.3159 20.3808 17.1475 20.5005C16.9766 20.6172 16.875 20.8047 16.875 21.0156V24.375C16.875 24.7192 17.1544 25 17.4998 25C17.8453 25 18.1251 24.7192 18.1251 24.375V21.8281C18.3281 21.8594 18.5391 21.875 18.75 21.875C21.1625 21.875 23.125 19.9125 23.125 17.5C23.125 17.29 23.1091 17.0801 23.0774 16.875H26.25ZM39.7266 21.1797C39.1296 19.8422 38.4633 17.9766 37.7562 16.0039C36.5047 12.5102 35.2125 8.89687 33.9461 7.09766C30.7891 2.67812 25.625 0 20.1484 0H15.6328C7.00547 0 0 7.01641 0 15.6406C0 19.9719 1.81875 24.125 5 27.0937V39.375C5 39.7192 5.27953 40 5.625 40C5.97047 40 6.25 39.7192 6.25 39.375V26.5391L6.04297 26.3516C2.99687 23.6125 1.25 19.7109 1.25 15.6406C1.25 7.70547 7.70625 1.25 15.6406 1.25H20.1437C25.218 1.25 29.9953 3.73047 32.925 7.88594C34.0922 9.54609 35.4141 13.2375 36.5797 16.4953C37.2938 18.4898 37.9687 20.3773 38.5844 21.7563C38.8468 22.347 38.7944 22.9992 38.4403 23.5437C38.0875 24.0858 37.5137 24.3984 36.8677 24.3984H33.752V29.3984C33.752 31.8133 31.7864 33.7781 29.3723 33.7781H23.7473V39.375C23.7473 39.7192 24.0269 40 24.3723 40C24.7178 40 24.9973 39.7192 24.9973 39.375V35.0266H29.3723C32.477 35.0266 35.002 32.5023 35.002 29.3969V25.6469H36.8677C37.9286 25.6469 38.9091 25.1147 39.4887 24.2234C40.0703 23.3281 40.1641 22.2188 39.7266 21.1797Z" fill="#222222"/>
</svg>
