<svg width="40" height="40" viewBox="0 0 40 40" fill="none" xmlns="http://www.w3.org/2000/svg">
<path d="M13.6438 16.1438C13.4484 16.3391 13.4484 16.6555 13.6438 16.8506L19.5875 22.7944C19.7375 22.9437 19.8625 23 20 23C20.1375 23 20.2633 22.9439 20.3538 22.8533L26.2975 16.9095C26.4928 16.7142 26.4928 16.3978 26.2975 16.2026C26.1022 16.0075 25.7858 16.0073 25.5906 16.2026L20.5 21.2938V6.5C20.5 6.22363 20.2766 6 20.0002 6C19.7238 6 19.5 6.22375 19.5 6.5V21.2938L14.3562 16.1438C14.1562 15.95 13.8438 15.95 13.6438 16.1438ZM24.5 7H33C34.1044 7 35 7.89562 35 9V25.5C35 25.7761 35.2239 26 35.5 26C35.7761 26 36 25.775 36 25.5V9C36 7.35 34.65 6 33 6H24.5C24.225 6 24 6.22375 24 6.5C24 6.77625 24.225 7 24.5 7ZM4.5 26C4.77613 26 5 25.7761 5 25.5V9C5 7.89562 5.89562 7 7 7H15.5C15.775 7 16 6.77625 16 6.5C16 6.22375 15.775 6 15.5 6H7C5.35 6 4 7.35 4 9V25.5C4 25.775 4.22375 26 4.5 26ZM39 28H1C0.44925 28 0 28.45 0 29V30C0 32.2 1.80063 34 4 34H36C38.1994 34 40 32.2 40 30V29C40 28.45 39.55 28 39 28ZM39 30C39 31.6544 37.6544 33 36 33H4C2.34563 33 1 31.6544 1 30V29H39V30Z" fill="#222222"/>
</svg>
