<svg width="40" height="40" viewBox="0 0 40 40" fill="none" xmlns="http://www.w3.org/2000/svg">
<path d="M23.3333 9.77778C23.3333 11.6181 21.8403 13.1111 20 13.1111C18.1597 13.1111 16.6667 11.6181 16.6667 9.77778C16.6667 7.93681 18.1597 6.44444 20 6.44444C21.8403 6.44444 23.3333 7.93681 23.3333 9.77778ZM20 7.55556C18.7708 7.55556 17.7778 8.55069 17.7778 9.77778C17.7778 11.0069 18.7708 12 20 12C21.2292 12 22.2222 11.0069 22.2222 9.77778C22.2222 8.55069 21.2292 7.55556 20 7.55556ZM18.9722 23.6042C16.7431 20.8819 11.6667 14.125 11.6667 10.3333C11.6667 5.73125 15.3958 2 20 2C24.6042 2 28.3333 5.73125 28.3333 10.3333C28.3333 14.125 23.2569 20.8819 21.0278 23.6042C20.4931 24.3333 19.5069 24.3333 18.9722 23.6042ZM26.4792 13.1944C26.9722 12.0347 27.2222 11.0625 27.2222 10.3333C27.2222 6.34444 23.9861 3.11111 20 3.11111C16.0139 3.11111 12.7778 6.34444 12.7778 10.3333C12.7778 11.0625 13.0278 12.0347 13.5208 13.1944C14 14.3333 14.6736 15.5694 15.4306 16.7986C16.8819 19.25 18.7361 21.5972 19.8403 22.9097C19.9236 23.0833 20.0764 23.0833 20.1597 22.9097C21.2639 21.5972 23.0556 19.25 24.5694 16.7986C25.3264 15.5694 26 14.3333 26.4792 13.1944ZM29.5556 14.4861C29.6458 14.2639 29.7431 14.0278 29.8333 13.7917L37.0208 11.1806C38.4653 10.6528 40 11.7292 40 13.2708V31.3889C40 32.3194 39.4167 33.1597 38.5347 33.4792L27.4097 37.5208C27.2986 37.5625 27.1736 37.5694 27.0556 37.5278L12.7917 33.1389L2.98194 36.7083C1.53264 37.2361 0 36.1597 0 34.6181V16.5C0 15.5694 0.584583 14.7292 1.4625 14.4097L9.53472 11.4792C9.59722 11.8403 9.67361 12.2083 9.77083 12.5694L1.84236 15.4583C1.40347 15.6181 1.11111 16.0347 1.11111 16.5V34.6181C1.11111 35.3889 1.87708 35.9306 2.60208 35.6667L12.2222 32.1667V22.4931C12.2222 22.25 12.4722 21.9375 12.7778 21.9375C13.0833 21.9375 13.3333 22.25 13.3333 22.4931V32.1458L26.6667 36.25V22.4931C26.6667 22.25 26.9167 21.9375 27.2222 21.9375C27.5278 21.9375 27.7778 22.25 27.7778 22.4931V36.2083L38.1597 32.4306C38.5972 32.2708 38.8889 31.8542 38.8889 31.3889V13.2708C38.8889 12.5 38.0625 11.9583 37.3958 12.2222L29.2431 15.1875C29.3472 14.9583 29.4514 14.7222 29.5556 14.4861Z" fill="#222222"/>
</svg>
