<svg width="42" height="40" viewBox="0 0 42 40" fill="none" xmlns="http://www.w3.org/2000/svg">
<path d="M28.0547 10.8047L19.0547 19.7422L14.5703 15.1797C14.3262 14.9355 13.9306 14.9355 13.6867 15.1797C13.4426 15.4238 13.4426 15.8193 13.6867 16.0633L18.6797 21.0625C18.8017 21.1845 18.9605 21.2456 19.1216 21.2456C19.2827 21.2456 19.4414 21.1846 19.5634 21.0625L28.9384 11.7578C29.1826 11.5137 29.1826 11.1182 28.9384 10.8742C28.6953 10.5625 28.3047 10.5625 28.0547 10.8047ZM35.9297 0H5.92969C3.17578 0 0.929688 2.24609 0.929688 4.92969V27.3594C0.929688 30.1133 3.17578 32.2891 5.92969 32.2891H13.4297V38.7812C13.4297 39.6094 13.9609 40 14.4531 40C14.6382 40 14.827 39.9417 14.9959 39.8184L24.7537 32.4981H36.0037C38.7577 32.4981 41.0037 30.252 41.0037 27.5684V4.92969C40.9297 2.24609 38.75 0 35.9297 0ZM39.6797 27.4297C39.6797 29.4969 37.9977 31.1094 35.9297 31.1094H24.2656L14.6797 38.3031V31.1094H5.92969C3.86172 31.1094 2.17969 29.4273 2.17969 27.4297V5C2.17969 2.93281 3.86172 1.32031 5.92969 1.32031H35.9297C37.9977 1.32031 39.6797 3.00234 39.6797 5V27.4297Z" fill="#222222"/>
</svg>
