<svg width="40" height="40" viewBox="0 0 40 40" fill="none" xmlns="http://www.w3.org/2000/svg">
<path d="M23.75 34.375H16.25C15.9058 34.375 15.625 34.6545 15.625 35C15.625 35.3455 15.9058 35.625 16.25 35.625H23.75C24.0942 35.625 24.375 35.3455 24.375 35C24.375 34.6545 24.0938 34.375 23.75 34.375ZM28.75 0H11.25C9.17969 0 7.5 1.67969 7.5 3.75V36.25C7.5 38.3203 9.17969 40 11.25 40H28.75C30.8203 40 32.5 38.3203 32.5 36.25V3.75C32.5 1.67969 30.8203 0 28.75 0ZM16.25 1.25H23.75V3.125C23.75 3.46922 23.4692 3.75 23.125 3.75H16.875C16.5312 3.75 16.25 3.46953 16.25 3.125V1.25ZM31.25 36.25C31.25 37.6281 30.1281 38.75 28.75 38.75H11.25C9.87188 38.75 8.75 37.6281 8.75 36.25V3.75C8.75 2.37188 9.87188 1.25 11.25 1.25H15V3.125C15 4.15859 15.8438 5 16.875 5H23.125C24.1562 5 25 4.15859 25 3.125V1.25H28.75C30.1281 1.25 31.25 2.37188 31.25 3.75V36.25Z" fill="#222222"/>
</svg>
