<svg width="40" height="40" viewBox="0 0 40 40" fill="none" xmlns="http://www.w3.org/2000/svg">
<path d="M9.75781 19.4219C9.99219 19.3281 10.2656 19.3828 10.4453 19.5547L20.4453 29.5547C20.6172 29.7344 20.6719 30.0078 20.5781 30.2422C20.4844 30.4766 20.25 30.625 20 30.625H10C9.65625 30.625 9.375 30.3438 9.375 30V20C9.375 19.75 9.52344 19.5156 9.75781 19.4219ZM10.625 21.5078V29.375H18.4922L10.625 21.5078ZM2.34375e-05 35V3.53516C2.34375e-05 1.58281 1.58281 0 3.53594 0C4.47344 0 5.37266 0.3725 6.03594 1.03516L38.9609 33.9609C39.625 34.625 40 35.5234 40 36.4609C40 38.4141 38.4141 40 36.4609 40H5C2.23828 40 0 37.7578 0 35H2.34375e-05ZM1.25 3.53516V35C1.25 37.0703 2.92891 38.75 5 38.75H36.4609C37.7266 38.75 38.75 37.7266 38.75 36.4609C38.75 35.7891 38.5078 35.2734 38.0781 34.8516L34.5547 31.2578L32.3203 33.5703C32.0703 33.8125 31.6797 33.8125 31.4297 33.5703C31.1875 33.3203 31.1875 32.9297 31.4297 32.6797L33.6719 30.4453L28.3047 25.0078L26.0703 27.3203C25.8203 27.5625 25.4297 27.5625 25.1797 27.3203C24.9375 27.0703 24.9375 26.6797 25.1797 26.4297L27.4219 24.1953L22.0547 18.7578L19.8203 21.0703C19.5703 21.3125 19.1797 21.3125 18.9297 21.0703C18.6875 20.8203 18.6875 20.4297 18.9297 20.1797L21.1719 17.9453L15.8047 12.5078L13.5703 14.8203C13.3203 15.0625 12.9297 15.0625 12.6797 14.8203C12.4375 14.5703 12.4375 14.1797 12.6797 13.9297L14.9219 11.6953L9.55469 6.32578L7.31719 8.57031C7.07266 8.8125 6.67734 8.8125 6.43281 8.57031C6.18906 8.32031 6.18906 7.92969 6.43281 7.68281L8.67188 5.44219L5.15156 1.91953C4.72344 1.49062 4.14141 1.25 3.53594 1.25C2.27344 1.25 1.25 2.27344 1.25 3.53516Z" fill="#222222"/>
</svg>
