<svg width="41" height="40" viewBox="0 0 41 40" fill="none" xmlns="http://www.w3.org/2000/svg">
<path d="M0.146437 4.14644C0.341688 3.95119 0.658125 3.95119 0.85375 4.14644L5.85375 9.14625C6.04875 9.34187 6.04875 9.65813 5.85375 9.85375C5.65813 10.0488 5.34187 10.0488 5.14625 9.85375L0.146437 4.85375C-0.0488125 4.65812 -0.0488125 4.34169 0.146437 4.14644ZM39.8563 4.85375L34.8563 9.85375C34.6563 10.0488 34.3437 10.0488 34.1437 9.85375C33.95 9.65813 33.95 9.34187 34.1437 9.14625L39.1437 4.14644C39.3437 3.95121 39.6563 3.95121 39.8563 4.14644C40.05 4.34175 40.05 4.65812 39.8563 4.85375ZM0.85375 35.8563C0.658125 36.05 0.34175 36.05 0.146437 35.8563C-0.0487937 35.6563 -0.0487937 35.3437 0.146437 35.1437L5.14625 30.1437C5.34187 29.95 5.65813 29.95 5.85375 30.1437C6.04875 30.3437 6.04875 30.6563 5.85375 30.8563L0.85375 35.8563ZM39.8563 35.8563C39.6563 36.05 39.3437 36.05 39.1437 35.8563L34.1437 30.8563C33.95 30.6563 33.95 30.3437 34.1437 30.1437C34.3437 29.95 34.6563 29.95 34.8563 30.1437L39.8563 35.1437C40.05 35.3437 40.05 35.6563 39.8563 35.8563ZM16 16C16 13.7938 17.7938 12 20 12C22.2062 12 24 13.7938 24 16C24 18.2062 22.2062 20 20 20C17.7938 20 16 18.2062 16 16ZM20 13C18.3438 13 17 14.3438 17 16C17 17.6562 18.3438 19 20 19C21.6562 19 23 17.6562 23 16C23 14.3438 21.6562 13 20 13ZM22.5 22C24.9875 22 27 24.0125 27 26.5C27 27.3313 26.3313 28 25.5 28H14.5C13.6687 28 13 27.3313 13 26.5C13 24.0125 15.0125 22 17.5 22H22.5ZM14.5 27H25.5C25.775 27 26 26.775 26 26.5C26 24.5688 24.4312 23 22.5 23H17.5C15.5688 23 14 24.5688 14 26.5C14 26.775 14.225 27 14.5 27ZM9.5 21C8.11875 21 7 22.1187 7 23.5C7 24.05 7.45 24.5 8 24.5H10C10.275 24.5 10.5 24.725 10.5 25C10.5 25.275 10.275 25.5 10 25.5H8C6.89375 25.5 6 24.6063 6 23.5C6 21.5688 7.56875 20 9.5 20H13.5C13.775 20 14 20.225 14 20.5C14 20.775 13.775 21 13.5 21H9.5ZM14 15C14 16.6562 12.6562 18 11 18C9.34375 18 8 16.6562 8 15C8 13.3438 9.34375 12 11 12C12.6562 12 14 13.3438 14 15ZM11 13C9.89375 13 9 13.8937 9 15C9 16.1063 9.89375 17 11 17C12.1063 17 13 16.1063 13 15C13 13.8937 12.1063 13 11 13ZM26.5 21C26.225 21 26 20.775 26 20.5C26 20.225 26.225 20 26.5 20H30.5C32.4312 20 34 21.5688 34 23.5C34 24.6063 33.1063 25.5 32 25.5H30C29.725 25.5 29.5 25.275 29.5 25C29.5 24.725 29.725 24.5 30 24.5H32C32.55 24.5 33 24.05 33 23.5C33 22.1187 31.8813 21 30.5 21H26.5ZM29 12C30.6562 12 32 13.3438 32 15C32 16.6562 30.6562 18 29 18C27.3438 18 26 16.6562 26 15C26 13.3438 27.3438 12 29 12ZM27 15C27 16.1063 27.8937 17 29 17C30.1063 17 31 16.1063 31 15C31 13.8937 30.1063 13 29 13C27.8937 13 27 13.8937 27 15Z" fill="#222222"/>
</svg>
