<svg viewBox="0 0 257 44" fill="none" xmlns="http://www.w3.org/2000/svg"><g opacity="0.5"><path d="M15.8358 21.1378C15.2732 20.5546 14.9555 19.732 14.961 18.872L15.0671 2.03759C15.0833 -0.533555 17.748 -1.93247 19.514 -0.296969L40.7088 19.3314C41.3365 19.9128 41.6995 20.7794 41.698 21.6933L41.666 40.9461C41.6616 43.6051 38.8443 44.9877 37.1048 43.1847L15.8358 21.1378Z" fill="#BEC8C2"/><path d="M46.1378 21.1378C45.5752 20.5546 45.2576 19.732 45.263 18.872L45.3691 2.03759C45.3853 -0.533555 48.05 -1.93247 49.816 -0.296969L71.0108 19.3314C71.6386 19.9128 72.0015 20.7794 72 21.6933L71.9681 40.9461C71.9636 43.6051 69.1463 44.9877 67.4068 43.1847L46.1378 21.1378Z" fill="#BEC8C2"/><path d="M0.903687 35.4804C-0.377435 34.2718 -0.281378 32.0097 1.09623 30.946L9.44694 24.4984C11.1142 23.2111 13.3723 24.5671 13.3685 26.8532L13.3451 41.1568C13.3412 43.5642 10.8636 44.8768 9.23098 43.3365L0.903687 35.4804Z" fill="#BEC8C2"/><path d="M92.2062 33V23.3772L91.8767 17.0041H92.1403L99.62 32.6529L107.067 17.0041H107.297L106.968 23.3141V33H112.141V10H105.518L99.7188 22.8409H99.4882L93.623 10H87V33H92.2062Z" fill="#BEC8C2"/><path d="M134.218 33V28.6145H122.553V23.1564H132.537V19.0233H122.553V14.3855H134.218V10H117.215V33H134.218Z" fill="#BEC8C2"/><path d="M148.605 33C155.821 33 159.445 29.1824 159.445 21.5158C159.445 13.8491 155.821 10 148.605 10H138.324V33H148.605ZM143.662 14.3855H148.473C152.13 14.3855 153.877 15.7106 153.877 19.5281V23.4719C153.877 27.037 152.46 28.6145 148.473 28.6145H143.662V14.3855Z" fill="#BEC8C2"/><path d="M168.439 10H163.101V33H168.439V10Z" fill="#BEC8C2"/><path d="M194.417 33L185.62 10H179.425L170.957 33H176.459L177.876 28.9931H187.201L188.585 33H194.417ZM180.183 22.4623L182.522 15.332H182.72L184.928 22.4623L185.85 25.0809H179.26L180.183 22.4623Z" fill="#BEC8C2"/><path d="M201.615 33V23.5981L201.285 17.2565H201.516L211.137 33H217.299V10H212.027V19.2757L212.324 25.8697H212.126L202.439 10H196.277V33H201.615Z" fill="#BEC8C2"/><path d="M237.497 33V28.4883H227.711V10H222.373V33H237.497Z" fill="#BEC8C2"/><path d="M242.732 24.1975V33H248.037V24.1975L257 10H250.706L245.5 19.6543H245.237L242.634 14.7641L240.064 10H233.77L242.732 24.1975Z" fill="#BEC8C2"/></g></svg>