<svg width="257" height="45" viewBox="0 0 257 45" fill="none" xmlns="http://www.w3.org/2000/svg">
<path d="M15.8358 22.1378C15.2732 21.5546 14.9555 20.732 14.961 19.872L15.0671 3.03759C15.0833 0.466445 17.748 -0.932471 19.514 0.703031L40.7088 20.3314C41.3365 20.9128 41.6995 21.7794 41.698 22.6933L41.666 41.9461C41.6616 44.6051 38.8443 45.9877 37.1048 44.1847L15.8358 22.1378Z" fill="url(#paint0_linear_47_96)"/>
<path d="M46.1378 22.1378C45.5752 21.5546 45.2576 20.732 45.263 19.872L45.3691 3.03759C45.3853 0.466445 48.05 -0.932471 49.816 0.703031L71.0108 20.3314C71.6386 20.9128 72.0015 21.7794 72 22.6933L71.9681 41.9461C71.9636 44.6051 69.1463 45.9877 67.4068 44.1847L46.1378 22.1378Z" fill="url(#paint1_linear_47_96)"/>
<path d="M0.903687 36.4804C-0.377435 35.2718 -0.281378 33.0097 1.09623 31.946L9.44694 25.4984C11.1142 24.2111 13.3723 25.5671 13.3685 27.8532L13.3451 42.1568C13.3412 44.5642 10.8636 45.8768 9.23098 44.3365L0.903687 36.4804Z" fill="url(#paint2_linear_47_96)"/>
<path d="M92.2062 34V24.3772L91.8767 18.0041H92.1403L99.62 33.6529L107.067 18.0041H107.297L106.968 24.3141V34H112.141V11H105.518L99.7188 23.8409H99.4882L93.623 11H87V34H92.2062Z" fill="url(#paint3_linear_47_96)"/>
<path d="M134.218 34V29.6145H122.553V24.1564H132.537V20.0233H122.553V15.3855H134.218V11H117.215V34H134.218Z" fill="url(#paint4_linear_47_96)"/>
<path d="M148.605 34C155.821 34 159.445 30.1824 159.445 22.5158C159.445 14.8491 155.821 11 148.605 11H138.324V34H148.605ZM143.662 15.3855H148.473C152.13 15.3855 153.877 16.7106 153.877 20.5281V24.4719C153.877 28.037 152.46 29.6145 148.473 29.6145H143.662V15.3855Z" fill="url(#paint5_linear_47_96)"/>
<path d="M168.439 11H163.101V34H168.439V11Z" fill="url(#paint6_linear_47_96)"/>
<path d="M194.417 34L185.62 11H179.425L170.957 34H176.459L177.876 29.9931H187.201L188.585 34H194.417ZM180.183 23.4623L182.522 16.332H182.72L184.928 23.4623L185.85 26.0809H179.26L180.183 23.4623Z" fill="url(#paint7_linear_47_96)"/>
<path d="M201.615 34V24.5981L201.285 18.2565H201.516L211.137 34H217.299V11H212.027V20.2757L212.324 26.8697H212.126L202.439 11H196.277V34H201.615Z" fill="url(#paint8_linear_47_96)"/>
<path d="M237.497 34V29.4883H227.711V11H222.373V34H237.497Z" fill="url(#paint9_linear_47_96)"/>
<path d="M242.732 25.1975V34H248.037V25.1975L257 11H250.706L245.5 20.6543H245.237L242.634 15.7641L240.064 11H233.77L242.732 25.1975Z" fill="url(#paint10_linear_47_96)"/>
<defs>
<linearGradient id="paint0_linear_47_96" x1="35.0137" y1="0" x2="35.0137" y2="45" gradientUnits="userSpaceOnUse">
<stop stop-color="#5A5A5A"/>
<stop offset="1" stop-color="#4E3333"/>
</linearGradient>
<linearGradient id="paint1_linear_47_96" x1="35.0137" y1="0" x2="35.0137" y2="45" gradientUnits="userSpaceOnUse">
<stop stop-color="#5A5A5A"/>
<stop offset="1" stop-color="#4E3333"/>
</linearGradient>
<linearGradient id="paint2_linear_47_96" x1="35.0137" y1="0" x2="35.0137" y2="45" gradientUnits="userSpaceOnUse">
<stop stop-color="#5A5A5A"/>
<stop offset="1" stop-color="#4E3333"/>
</linearGradient>
<linearGradient id="paint3_linear_47_96" x1="169.671" y1="11" x2="169.671" y2="34" gradientUnits="userSpaceOnUse">
<stop stop-color="#5B5B5B"/>
<stop offset="1" stop-color="#444444"/>
</linearGradient>
<linearGradient id="paint4_linear_47_96" x1="169.671" y1="11" x2="169.671" y2="34" gradientUnits="userSpaceOnUse">
<stop stop-color="#5B5B5B"/>
<stop offset="1" stop-color="#444444"/>
</linearGradient>
<linearGradient id="paint5_linear_47_96" x1="169.671" y1="11" x2="169.671" y2="34" gradientUnits="userSpaceOnUse">
<stop stop-color="#5B5B5B"/>
<stop offset="1" stop-color="#444444"/>
</linearGradient>
<linearGradient id="paint6_linear_47_96" x1="169.671" y1="11" x2="169.671" y2="34" gradientUnits="userSpaceOnUse">
<stop stop-color="#5B5B5B"/>
<stop offset="1" stop-color="#444444"/>
</linearGradient>
<linearGradient id="paint7_linear_47_96" x1="169.671" y1="11" x2="169.671" y2="34" gradientUnits="userSpaceOnUse">
<stop stop-color="#5B5B5B"/>
<stop offset="1" stop-color="#444444"/>
</linearGradient>
<linearGradient id="paint8_linear_47_96" x1="169.671" y1="11" x2="169.671" y2="34" gradientUnits="userSpaceOnUse">
<stop stop-color="#5B5B5B"/>
<stop offset="1" stop-color="#444444"/>
</linearGradient>
<linearGradient id="paint9_linear_47_96" x1="169.671" y1="11" x2="169.671" y2="34" gradientUnits="userSpaceOnUse">
<stop stop-color="#5B5B5B"/>
<stop offset="1" stop-color="#444444"/>
</linearGradient>
<linearGradient id="paint10_linear_47_96" x1="169.671" y1="11" x2="169.671" y2="34" gradientUnits="userSpaceOnUse">
<stop stop-color="#5B5B5B"/>
<stop offset="1" stop-color="#444444"/>
</linearGradient>
</defs>
</svg>
